<?xml version="1.0" encoding="UTF-8" standalone="no"?>
<!DOCTYPE svg PUBLIC "-//W3C//DTD SVG 1.1//EN"
 "http://www.w3.org/Graphics/SVG/1.1/DTD/svg11.dtd">
<!-- Generated by graphviz version 2.40.1 (20161225.0304)
 -->
<!-- Title: dependencies Pages: 1 -->
<svg width="4431pt" height="284pt"
 viewBox="0.00 0.00 4431.00 284.00" xmlns="http://www.w3.org/2000/svg" xmlns:xlink="http://www.w3.org/1999/xlink">
<g id="graph0" class="graph" transform="scale(1 1) rotate(0) translate(4 280)">
<title>dependencies</title>
<polygon fill="#ffffff" stroke="transparent" points="-4,4 -4,-280 4427,-280 4427,4 -4,4"/>
<text text-anchor="start" x="2190.5091" y="-42.4" font-family="sans-serif" font-weight="bold" font-size="14.00" fill="#000000">Legend</text>
<polygon fill="#ffffb3" stroke="transparent" points="1977.5,-10 1977.5,-30 1997.5,-30 1997.5,-10 1977.5,-10"/>
<text text-anchor="start" x="2001.129" y="-15.4" font-family="sans-serif" font-size="14.00" fill="#000000"> &#160;Declarations</text>
<polygon fill="#8dd3c7" stroke="transparent" points="2090.5,-10 2090.5,-30 2110.5,-30 2110.5,-10 2090.5,-10"/>
<text text-anchor="start" x="2114.2251" y="-15.4" font-family="sans-serif" font-size="14.00" fill="#000000"> &#160;Module</text>
<polygon fill="#80b1d3" stroke="transparent" points="2176.5,-10 2176.5,-30 2196.5,-30 2196.5,-10 2176.5,-10"/>
<text text-anchor="start" x="2200.2812" y="-15.4" font-family="sans-serif" font-size="14.00" fill="#000000"> &#160;Bootstrap</text>
<polygon fill="#fdb462" stroke="transparent" points="2273.5,-10 2273.5,-30 2293.5,-30 2293.5,-10 2273.5,-10"/>
<text text-anchor="start" x="2297.1732" y="-15.4" font-family="sans-serif" font-size="14.00" fill="#000000"> &#160;Providers</text>
<polygon fill="#fb8072" stroke="transparent" points="2369.5,-10 2369.5,-30 2389.5,-30 2389.5,-10 2369.5,-10"/>
<text text-anchor="start" x="2393.2258" y="-15.4" font-family="sans-serif" font-size="14.00" fill="#000000"> &#160;Exports</text>
<g id="clust1" class="cluster">
<title>cluster_AppModule</title>
<polygon fill="none" stroke="#000000" stroke-dasharray="1,5" points="8,-70 8,-268 4415,-268 4415,-70 8,-70"/>
</g>
<g id="clust2" class="cluster">
<title>cluster_AppModule_declarations</title>
<polygon fill="none" stroke="#000000" points="1377,-78 1377,-130 4407,-130 4407,-78 1377,-78"/>
</g>
<g id="clust22" class="cluster">
<title>cluster_AppModule_imports</title>
<polygon fill="none" stroke="#000000" points="1225,-78 1225,-130 1369,-130 1369,-78 1225,-78"/>
</g>
<g id="clust24" class="cluster">
<title>cluster_AppModule_bootstrap</title>
<polygon fill="none" stroke="#000000" points="2312,-208 2312,-260 2436,-260 2436,-208 2312,-208"/>
</g>
<g id="clust25" class="cluster">
<title>cluster_AppModule_providers</title>
<polygon fill="none" stroke="#000000" points="16,-78 16,-130 1217,-130 1217,-78 16,-78"/>
</g>
<!-- AdministrationComponent -->
<g id="node1" class="node">
<title>AdministrationComponent</title>
<polygon fill="#ffffb3" stroke="#000000" points="4399.1024,-122 4232.8976,-122 4232.8976,-86 4399.1024,-86 4399.1024,-122"/>
<text text-anchor="middle" x="4316" y="-99.8" font-family="Times,serif" font-size="14.00" fill="#000000">AdministrationComponent</text>
</g>
<!-- AppModule -->
<g id="node20" class="node">
<title>AppModule</title>
<polygon fill="#8dd3c7" stroke="#000000" points="2415.6571,-187 2412.6571,-191 2391.6571,-191 2388.6571,-187 2332.3429,-187 2332.3429,-151 2415.6571,-151 2415.6571,-187"/>
<text text-anchor="middle" x="2374" y="-164.8" font-family="Times,serif" font-size="14.00" fill="#000000">AppModule</text>
</g>
<!-- AdministrationComponent&#45;&gt;AppModule -->
<g id="edge1" class="edge">
<title>AdministrationComponent&#45;&gt;AppModule</title>
<path fill="none" stroke="#000000" d="M4316,-122.3802C4316,-146.2785 4316,-185 4316,-185 4316,-185 2425.9125,-185 2425.9125,-185"/>
<polygon fill="#000000" stroke="#000000" points="2425.9126,-181.5001 2415.9125,-185 2425.9125,-188.5001 2425.9126,-181.5001"/>
</g>
<!-- AppComponent -->
<g id="node2" class="node">
<title>AppComponent</title>
<polygon fill="#ffffb3" stroke="#000000" points="4214.9399,-122 4109.0601,-122 4109.0601,-86 4214.9399,-86 4214.9399,-122"/>
<text text-anchor="middle" x="4162" y="-99.8" font-family="Times,serif" font-size="14.00" fill="#000000">AppComponent</text>
</g>
<!-- AppComponent&#45;&gt;AppModule -->
<g id="edge2" class="edge">
<title>AppComponent&#45;&gt;AppModule</title>
<path fill="none" stroke="#000000" d="M4162,-122.0908C4162,-145.1328 4162,-182 4162,-182 4162,-182 2425.9988,-182 2425.9988,-182"/>
<polygon fill="#000000" stroke="#000000" points="2425.9988,-178.5001 2415.9988,-182 2425.9987,-185.5001 2425.9988,-178.5001"/>
</g>
<!-- AreasComponent -->
<g id="node3" class="node">
<title>AreasComponent</title>
<polygon fill="#ffffb3" stroke="#000000" points="4090.9734,-122 3977.0266,-122 3977.0266,-86 4090.9734,-86 4090.9734,-122"/>
<text text-anchor="middle" x="4034" y="-99.8" font-family="Times,serif" font-size="14.00" fill="#000000">AreasComponent</text>
</g>
<!-- AreasComponent&#45;&gt;AppModule -->
<g id="edge3" class="edge">
<title>AreasComponent&#45;&gt;AppModule</title>
<path fill="none" stroke="#000000" d="M4034,-122.1554C4034,-144.3519 4034,-179 4034,-179 4034,-179 2425.8642,-179 2425.8642,-179"/>
<polygon fill="#000000" stroke="#000000" points="2425.8642,-175.5001 2415.8642,-179 2425.8641,-182.5001 2425.8642,-175.5001"/>
</g>
<!-- CandidateDetailsComponent -->
<g id="node4" class="node">
<title>CandidateDetailsComponent</title>
<polygon fill="#ffffb3" stroke="#000000" points="3958.7464,-122 3781.2536,-122 3781.2536,-86 3958.7464,-86 3958.7464,-122"/>
<text text-anchor="middle" x="3870" y="-99.8" font-family="Times,serif" font-size="14.00" fill="#000000">CandidateDetailsComponent</text>
</g>
<!-- CandidateDetailsComponent&#45;&gt;AppModule -->
<g id="edge4" class="edge">
<title>CandidateDetailsComponent&#45;&gt;AppModule</title>
<path fill="none" stroke="#000000" d="M3870,-122.1686C3870,-143.498 3870,-176 3870,-176 3870,-176 2425.9669,-176 2425.9669,-176"/>
<polygon fill="#000000" stroke="#000000" points="2425.967,-172.5001 2415.9669,-176 2425.9669,-179.5001 2425.967,-172.5001"/>
</g>
<!-- ConfigurationComponent -->
<g id="node5" class="node">
<title>ConfigurationComponent</title>
<polygon fill="#ffffb3" stroke="#000000" points="3762.8766,-122 3603.1234,-122 3603.1234,-86 3762.8766,-86 3762.8766,-122"/>
<text text-anchor="middle" x="3683" y="-99.8" font-family="Times,serif" font-size="14.00" fill="#000000">ConfigurationComponent</text>
</g>
<!-- ConfigurationComponent&#45;&gt;AppModule -->
<g id="edge5" class="edge">
<title>ConfigurationComponent&#45;&gt;AppModule</title>
<path fill="none" stroke="#000000" d="M3683,-122.0267C3683,-142.7672 3683,-174 3683,-174 3683,-174 2425.7032,-174 2425.7032,-174"/>
<polygon fill="#000000" stroke="#000000" points="2425.7033,-170.5001 2415.7032,-174 2425.7032,-177.5001 2425.7033,-170.5001"/>
</g>
<!-- CreateRequestComponent -->
<g id="node6" class="node">
<title>CreateRequestComponent</title>
<polygon fill="#ffffb3" stroke="#000000" points="3585.465,-122 3422.535,-122 3422.535,-86 3585.465,-86 3585.465,-122"/>
<text text-anchor="middle" x="3504" y="-99.8" font-family="Times,serif" font-size="14.00" fill="#000000">CreateRequestComponent</text>
</g>
<!-- CreateRequestComponent&#45;&gt;AppModule -->
<g id="edge6" class="edge">
<title>CreateRequestComponent&#45;&gt;AppModule</title>
<path fill="none" stroke="#000000" d="M3504,-122.308C3504,-142.1455 3504,-171 3504,-171 3504,-171 2425.8956,-171 2425.8956,-171"/>
<polygon fill="#000000" stroke="#000000" points="2425.8956,-167.5001 2415.8956,-171 2425.8956,-174.5001 2425.8956,-167.5001"/>
</g>
<!-- DetailsComponent -->
<g id="node7" class="node">
<title>DetailsComponent</title>
<polygon fill="#ffffb3" stroke="#000000" points="3404.4846,-122 3283.5154,-122 3283.5154,-86 3404.4846,-86 3404.4846,-122"/>
<text text-anchor="middle" x="3344" y="-99.8" font-family="Times,serif" font-size="14.00" fill="#000000">DetailsComponent</text>
</g>
<!-- DetailsComponent&#45;&gt;AppModule -->
<g id="edge7" class="edge">
<title>DetailsComponent&#45;&gt;AppModule</title>
<path fill="none" stroke="#000000" d="M3344,-122.1686C3344,-141.0898 3344,-168 3344,-168 3344,-168 2425.6797,-168 2425.6797,-168"/>
<polygon fill="#000000" stroke="#000000" points="2425.6797,-164.5001 2415.6797,-168 2425.6797,-171.5001 2425.6797,-164.5001"/>
</g>
<!-- HomeComponent -->
<g id="node8" class="node">
<title>HomeComponent</title>
<polygon fill="#ffffb3" stroke="#000000" points="3265.5451,-122 3150.4549,-122 3150.4549,-86 3265.5451,-86 3265.5451,-122"/>
<text text-anchor="middle" x="3208" y="-99.8" font-family="Times,serif" font-size="14.00" fill="#000000">HomeComponent</text>
</g>
<!-- HomeComponent&#45;&gt;AppModule -->
<g id="edge8" class="edge">
<title>HomeComponent&#45;&gt;AppModule</title>
<path fill="none" stroke="#000000" d="M3208,-122.302C3208,-140.2699 3208,-165 3208,-165 3208,-165 2425.9297,-165 2425.9297,-165"/>
<polygon fill="#000000" stroke="#000000" points="2425.9298,-161.5001 2415.9297,-165 2425.9297,-168.5001 2425.9298,-161.5001"/>
</g>
<!-- ListRequestComponent -->
<g id="node9" class="node">
<title>ListRequestComponent</title>
<polygon fill="#ffffb3" stroke="#000000" points="3132.212,-122 2983.788,-122 2983.788,-86 3132.212,-86 3132.212,-122"/>
<text text-anchor="middle" x="3058" y="-99.8" font-family="Times,serif" font-size="14.00" fill="#000000">ListRequestComponent</text>
</g>
<!-- ListRequestComponent&#45;&gt;AppModule -->
<g id="edge9" class="edge">
<title>ListRequestComponent&#45;&gt;AppModule</title>
<path fill="none" stroke="#000000" d="M3058,-122.0225C3058,-139.3734 3058,-163 3058,-163 3058,-163 2425.7576,-163 2425.7576,-163"/>
<polygon fill="#000000" stroke="#000000" points="2425.7577,-159.5001 2415.7576,-163 2425.7576,-166.5001 2425.7577,-159.5001"/>
</g>
<!-- LoginComponent -->
<g id="node10" class="node">
<title>LoginComponent</title>
<polygon fill="#ffffb3" stroke="#000000" points="2966.2758,-122 2851.7242,-122 2851.7242,-86 2966.2758,-86 2966.2758,-122"/>
<text text-anchor="middle" x="2909" y="-99.8" font-family="Times,serif" font-size="14.00" fill="#000000">LoginComponent</text>
</g>
<!-- LoginComponent&#45;&gt;AppModule -->
<g id="edge10" class="edge">
<title>LoginComponent&#45;&gt;AppModule</title>
<path fill="none" stroke="#000000" d="M2909,-122.027C2909,-138.3976 2909,-160 2909,-160 2909,-160 2425.9806,-160 2425.9806,-160"/>
<polygon fill="#000000" stroke="#000000" points="2425.9806,-156.5001 2415.9806,-160 2425.9805,-163.5001 2425.9806,-156.5001"/>
</g>
<!-- NavbarComponent -->
<g id="node11" class="node">
<title>NavbarComponent</title>
<polygon fill="#ffffb3" stroke="#000000" points="2833.0297,-122 2710.9703,-122 2710.9703,-86 2833.0297,-86 2833.0297,-122"/>
<text text-anchor="middle" x="2772" y="-99.8" font-family="Times,serif" font-size="14.00" fill="#000000">NavbarComponent</text>
</g>
<!-- NavbarComponent&#45;&gt;AppModule -->
<g id="edge11" class="edge">
<title>NavbarComponent&#45;&gt;AppModule</title>
<path fill="none" stroke="#000000" d="M2772,-122.2396C2772,-137.5706 2772,-157 2772,-157 2772,-157 2425.8407,-157 2425.8407,-157"/>
<polygon fill="#000000" stroke="#000000" points="2425.8408,-153.5001 2415.8407,-157 2425.8407,-160.5001 2425.8408,-153.5001"/>
</g>
<!-- NewAccountComponent -->
<g id="node12" class="node">
<title>NewAccountComponent</title>
<polygon fill="#ffffb3" stroke="#000000" points="2692.6867,-122 2537.3133,-122 2537.3133,-86 2692.6867,-86 2692.6867,-122"/>
<text text-anchor="middle" x="2615" y="-99.8" font-family="Times,serif" font-size="14.00" fill="#000000">NewAccountComponent</text>
</g>
<!-- NewAccountComponent&#45;&gt;AppModule -->
<g id="edge12" class="edge">
<title>NewAccountComponent&#45;&gt;AppModule</title>
<path fill="none" stroke="#000000" d="M2615,-122.0511C2615,-136.373 2615,-154 2615,-154 2615,-154 2425.7039,-154 2425.7039,-154"/>
<polygon fill="#000000" stroke="#000000" points="2425.7039,-150.5001 2415.7039,-154 2425.7038,-157.5001 2425.7039,-150.5001"/>
</g>
<!-- NewAreaComponent -->
<g id="node13" class="node">
<title>NewAreaComponent</title>
<polygon fill="#ffffb3" stroke="#000000" points="2519.4566,-122 2384.5434,-122 2384.5434,-86 2519.4566,-86 2519.4566,-122"/>
<text text-anchor="middle" x="2452" y="-99.8" font-family="Times,serif" font-size="14.00" fill="#000000">NewAreaComponent</text>
</g>
<!-- NewAreaComponent&#45;&gt;AppModule -->
<g id="edge13" class="edge">
<title>NewAreaComponent&#45;&gt;AppModule</title>
<path fill="none" stroke="#000000" d="M2400.1749,-122.1061C2400.1749,-122.1061 2400.1749,-140.991 2400.1749,-140.991"/>
<polygon fill="#000000" stroke="#000000" points="2396.675,-140.9909 2400.1749,-150.991 2403.675,-140.991 2396.675,-140.9909"/>
</g>
<!-- NewdetailComponent -->
<g id="node14" class="node">
<title>NewdetailComponent</title>
<polygon fill="#ffffb3" stroke="#000000" points="2366.3613,-122 2227.6387,-122 2227.6387,-86 2366.3613,-86 2366.3613,-122"/>
<text text-anchor="middle" x="2297" y="-99.8" font-family="Times,serif" font-size="14.00" fill="#000000">NewdetailComponent</text>
</g>
<!-- NewdetailComponent&#45;&gt;AppModule -->
<g id="edge14" class="edge">
<title>NewdetailComponent&#45;&gt;AppModule</title>
<path fill="none" stroke="#000000" d="M2349.3012,-122.1061C2349.3012,-122.1061 2349.3012,-140.991 2349.3012,-140.991"/>
<polygon fill="#000000" stroke="#000000" points="2345.8013,-140.9909 2349.3012,-150.991 2352.8013,-140.991 2345.8013,-140.9909"/>
</g>
<!-- RequestComponent -->
<g id="node15" class="node">
<title>RequestComponent</title>
<polygon fill="#ffffb3" stroke="#000000" points="2209.4341,-122 2082.5659,-122 2082.5659,-86 2209.4341,-86 2209.4341,-122"/>
<text text-anchor="middle" x="2146" y="-99.8" font-family="Times,serif" font-size="14.00" fill="#000000">RequestComponent</text>
</g>
<!-- RequestComponent&#45;&gt;AppModule -->
<g id="edge15" class="edge">
<title>RequestComponent&#45;&gt;AppModule</title>
<path fill="none" stroke="#000000" d="M2146,-122.0511C2146,-136.373 2146,-154 2146,-154 2146,-154 2322.1813,-154 2322.1813,-154"/>
<polygon fill="#000000" stroke="#000000" points="2322.1813,-157.5001 2332.1813,-154 2322.1813,-150.5001 2322.1813,-157.5001"/>
</g>
<!-- RequestDetailsComponent -->
<g id="node16" class="node">
<title>RequestDetailsComponent</title>
<polygon fill="#ffffb3" stroke="#000000" points="2065.0856,-122 1898.9144,-122 1898.9144,-86 2065.0856,-86 2065.0856,-122"/>
<text text-anchor="middle" x="1982" y="-99.8" font-family="Times,serif" font-size="14.00" fill="#000000">RequestDetailsComponent</text>
</g>
<!-- RequestDetailsComponent&#45;&gt;AppModule -->
<g id="edge16" class="edge">
<title>RequestDetailsComponent&#45;&gt;AppModule</title>
<path fill="none" stroke="#000000" d="M1982,-122.2396C1982,-137.5706 1982,-157 1982,-157 1982,-157 2322.0491,-157 2322.0491,-157"/>
<polygon fill="#000000" stroke="#000000" points="2322.0492,-160.5001 2332.0491,-157 2322.0491,-153.5001 2322.0492,-160.5001"/>
</g>
<!-- RequestFilterComponent -->
<g id="node17" class="node">
<title>RequestFilterComponent</title>
<polygon fill="#ffffb3" stroke="#000000" points="1881.2632,-122 1724.7368,-122 1724.7368,-86 1881.2632,-86 1881.2632,-122"/>
<text text-anchor="middle" x="1803" y="-99.8" font-family="Times,serif" font-size="14.00" fill="#000000">RequestFilterComponent</text>
</g>
<!-- RequestFilterComponent&#45;&gt;AppModule -->
<g id="edge17" class="edge">
<title>RequestFilterComponent&#45;&gt;AppModule</title>
<path fill="none" stroke="#000000" d="M1803,-122.027C1803,-138.3976 1803,-160 1803,-160 1803,-160 2322.013,-160 2322.013,-160"/>
<polygon fill="#000000" stroke="#000000" points="2322.013,-163.5001 2332.013,-160 2322.013,-156.5001 2322.013,-163.5001"/>
</g>
<!-- SidebarComponent -->
<g id="node18" class="node">
<title>SidebarComponent</title>
<polygon fill="#ffffb3" stroke="#000000" points="1707.0954,-122 1582.9046,-122 1582.9046,-86 1707.0954,-86 1707.0954,-122"/>
<text text-anchor="middle" x="1645" y="-99.8" font-family="Times,serif" font-size="14.00" fill="#000000">SidebarComponent</text>
</g>
<!-- SidebarComponent&#45;&gt;AppModule -->
<g id="edge18" class="edge">
<title>SidebarComponent&#45;&gt;AppModule</title>
<path fill="none" stroke="#000000" d="M1645,-122.0225C1645,-139.3734 1645,-163 1645,-163 1645,-163 2322.1875,-163 2322.1875,-163"/>
<polygon fill="#000000" stroke="#000000" points="2322.1875,-166.5001 2332.1875,-163 2322.1874,-159.5001 2322.1875,-166.5001"/>
</g>
<!-- UploadCandidateComponent -->
<g id="node19" class="node">
<title>UploadCandidateComponent</title>
<polygon fill="#ffffb3" stroke="#000000" points="1564.8061,-122 1385.1939,-122 1385.1939,-86 1564.8061,-86 1564.8061,-122"/>
<text text-anchor="middle" x="1475" y="-99.8" font-family="Times,serif" font-size="14.00" fill="#000000">UploadCandidateComponent</text>
</g>
<!-- UploadCandidateComponent&#45;&gt;AppModule -->
<g id="edge19" class="edge">
<title>UploadCandidateComponent&#45;&gt;AppModule</title>
<path fill="none" stroke="#000000" d="M1475,-122.302C1475,-140.2699 1475,-165 1475,-165 1475,-165 2322.1442,-165 2322.1442,-165"/>
<polygon fill="#000000" stroke="#000000" points="2322.1443,-168.5001 2332.1442,-165 2322.1442,-161.5001 2322.1443,-168.5001"/>
</g>
<!-- AppComponent  -->
<g id="node22" class="node">
<title>AppComponent </title>
<polygon fill="#80b1d3" stroke="#000000" points="2428.439,-252 2319.561,-252 2319.561,-216 2428.439,-216 2428.439,-252"/>
<text text-anchor="middle" x="2374" y="-229.8" font-family="Times,serif" font-size="14.00" fill="#000000">AppComponent </text>
</g>
<!-- AppModule&#45;&gt;AppComponent  -->
<g id="edge21" class="edge">
<title>AppModule&#45;&gt;AppComponent </title>
<path fill="none" stroke="#000000" stroke-dasharray="1,5" d="M2374,-187.1061C2374,-187.1061 2374,-205.991 2374,-205.991"/>
<polygon fill="#000000" stroke="#000000" points="2370.5001,-205.9909 2374,-215.991 2377.5001,-205.991 2370.5001,-205.9909"/>
</g>
<!-- AppRoutingModule -->
<g id="node21" class="node">
<title>AppRoutingModule</title>
<polygon fill="#8dd3c7" stroke="#000000" points="1361.2744,-122 1358.2744,-126 1337.2744,-126 1334.2744,-122 1232.7256,-122 1232.7256,-86 1361.2744,-86 1361.2744,-122"/>
<text text-anchor="middle" x="1297" y="-99.8" font-family="Times,serif" font-size="14.00" fill="#000000">AppRoutingModule</text>
</g>
<!-- AppRoutingModule&#45;&gt;AppModule -->
<g id="edge20" class="edge">
<title>AppRoutingModule&#45;&gt;AppModule</title>
<path fill="none" stroke="#000000" d="M1297,-122.1686C1297,-141.0898 1297,-168 1297,-168 1297,-168 2322.1109,-168 2322.1109,-168"/>
<polygon fill="#000000" stroke="#000000" points="2322.1109,-171.5001 2332.1109,-168 2322.1108,-164.5001 2322.1109,-171.5001"/>
</g>
<!-- AuthenticationService -->
<g id="node23" class="node">
<title>AuthenticationService</title>
<ellipse fill="#fdb462" stroke="#000000" cx="1112" cy="-104" rx="97.2683" ry="18"/>
<text text-anchor="middle" x="1112" y="-99.8" font-family="Times,serif" font-size="14.00" fill="#000000">AuthenticationService</text>
</g>
<!-- AuthenticationService&#45;&gt;AppModule -->
<g id="edge22" class="edge">
<title>AuthenticationService&#45;&gt;AppModule</title>
<path fill="none" stroke="#000000" d="M1112,-122.308C1112,-142.1455 1112,-171 1112,-171 1112,-171 2322.011,-171 2322.011,-171"/>
<polygon fill="#000000" stroke="#000000" points="2322.011,-174.5001 2332.011,-171 2322.011,-167.5001 2322.011,-174.5001"/>
</g>
<!-- CandidateService -->
<g id="node24" class="node">
<title>CandidateService</title>
<ellipse fill="#fdb462" stroke="#000000" cx="917" cy="-104" rx="79.2903" ry="18"/>
<text text-anchor="middle" x="917" y="-99.8" font-family="Times,serif" font-size="14.00" fill="#000000">CandidateService</text>
</g>
<!-- CandidateService&#45;&gt;AppModule -->
<g id="edge23" class="edge">
<title>CandidateService&#45;&gt;AppModule</title>
<path fill="none" stroke="#000000" d="M917,-122.0267C917,-142.7672 917,-174 917,-174 917,-174 2321.9661,-174 2321.9661,-174"/>
<polygon fill="#000000" stroke="#000000" points="2321.9662,-177.5001 2331.9661,-174 2321.9661,-170.5001 2321.9662,-177.5001"/>
</g>
<!-- ComunicationService -->
<g id="node25" class="node">
<title>ComunicationService</title>
<ellipse fill="#fdb462" stroke="#000000" cx="725" cy="-104" rx="94.9225" ry="18"/>
<text text-anchor="middle" x="725" y="-99.8" font-family="Times,serif" font-size="14.00" fill="#000000">ComunicationService</text>
</g>
<!-- ComunicationService&#45;&gt;AppModule -->
<g id="edge24" class="edge">
<title>ComunicationService&#45;&gt;AppModule</title>
<path fill="none" stroke="#000000" d="M725,-122.1686C725,-143.498 725,-176 725,-176 725,-176 2321.998,-176 2321.998,-176"/>
<polygon fill="#000000" stroke="#000000" points="2321.998,-179.5001 2331.998,-176 2321.998,-172.5001 2321.998,-179.5001"/>
</g>
<!-- ConfigurationService -->
<g id="node26" class="node">
<title>ConfigurationService</title>
<ellipse fill="#fdb462" stroke="#000000" cx="518" cy="-104" rx="94.3408" ry="18"/>
<text text-anchor="middle" x="518" y="-99.8" font-family="Times,serif" font-size="14.00" fill="#000000">ConfigurationService</text>
</g>
<!-- ConfigurationService&#45;&gt;AppModule -->
<g id="edge25" class="edge">
<title>ConfigurationService&#45;&gt;AppModule</title>
<path fill="none" stroke="#000000" d="M518,-122.1554C518,-144.3519 518,-179 518,-179 518,-179 2322.1912,-179 2322.1912,-179"/>
<polygon fill="#000000" stroke="#000000" points="2322.1912,-182.5001 2332.1912,-179 2322.1912,-175.5001 2322.1912,-182.5001"/>
</g>
<!-- RequestService -->
<g id="node27" class="node">
<title>RequestService</title>
<ellipse fill="#fdb462" stroke="#000000" cx="335" cy="-104" rx="71.2036" ry="18"/>
<text text-anchor="middle" x="335" y="-99.8" font-family="Times,serif" font-size="14.00" fill="#000000">RequestService</text>
</g>
<!-- RequestService&#45;&gt;AppModule -->
<g id="edge26" class="edge">
<title>RequestService&#45;&gt;AppModule</title>
<path fill="none" stroke="#000000" d="M335,-122.0908C335,-145.1328 335,-182 335,-182 335,-182 2321.8806,-182 2321.8806,-182"/>
<polygon fill="#000000" stroke="#000000" points="2321.8807,-185.5001 2331.8806,-182 2321.8806,-178.5001 2321.8807,-185.5001"/>
</g>
<!-- UserAccountDTOService -->
<g id="node28" class="node">
<title>UserAccountDTOService</title>
<ellipse fill="#fdb462" stroke="#000000" cx="135" cy="-104" rx="110.5531" ry="18"/>
<text text-anchor="middle" x="135" y="-99.8" font-family="Times,serif" font-size="14.00" fill="#000000">UserAccountDTOService</text>
</g>
<!-- UserAccountDTOService&#45;&gt;AppModule -->
<g id="edge27" class="edge">
<title>UserAccountDTOService&#45;&gt;AppModule</title>
<path fill="none" stroke="#000000" d="M135,-122.3802C135,-146.2785 135,-185 135,-185 135,-185 2322.2549,-185 2322.2549,-185"/>
<polygon fill="#000000" stroke="#000000" points="2322.2549,-188.5001 2332.2549,-185 2322.2548,-181.5001 2322.2549,-188.5001"/>
</g>
</g>
</svg>
